<svg fill="none" height="512" viewBox="0 0 24 24" width="512" xmlns="http://www.w3.org/2000/svg"><path clip-rule="evenodd" d="m2 0c-1.104569 0-2 .89543-2 2v20c0 1.1046.89543 2 2 2h20c1.1046 0 2-.8954 2-2v-20c0-1.104569-.8954-2-2-2zm5.64339 5.64339c.85786-.85785 2.24871-.85785 3.10661 0l3.3905 3.39058c.3906.39053 1.0237.39053 1.4143 0 .3905-.39052.3905-1.02368 0-1.41421l-3.3906-3.39058c-1.6389-1.63891-4.29612-1.63891-5.93502 0-1.63891 1.6389-1.63891 4.29609 0 5.93502l3.39058 3.3906c1.09924 1.0992 2.65614 1.4599 4.05334 1.0868.5335-.1425.8506-.6906.7081-1.2242s-.6906-.8506-1.2242-.7081c-.7357.1965-1.549.0053-2.123-.5688l-3.39061-3.39054c-.85785-.85786-.85785-2.24871 0-3.10657zm3.80901 5.64731c.7357-.1965 1.549-.0053 2.123.5688l3.3906 3.3905c.8579.8579.8579 2.2488 0 3.1066-.8578.8579-2.2487.8579-3.1065 0l-3.3906-3.3906c-.3905-.3905-1.02371-.3905-1.41423 0-.39053.3905-.39053 1.0237 0 1.4142l3.39053 3.3906c1.639 1.6389 4.2961 1.6389 5.935 0s1.6389-4.2961 0-5.935l-3.3905-3.3906c-1.0993-1.09924-2.6562-1.4599-4.0533-1.08678-.5336.14249-.8507.69058-.7082 1.22418s.6906.8506 1.2242.7081z" fill="rgb(0,0,0)" fill-rule="evenodd"/></svg>