<svg height="512" viewBox="0 0 32 32" width="512" xmlns="http://www.w3.org/2000/svg"><g id="Glyph"><g><g><path d="m21.24 14.95c-1.61 0-1.575 1.575-1.575 1.575h3.15s.034-1.575-1.575-1.575z" fill="#1a1718"/></g><g><path d="m14.091 13.622c0-1.281-.988-1.297-.988-1.297h-2.887v2.625h2.887s.988 0 .988-1.328z" fill="#1a1718"/></g><g><path d="m16 3.006c-7.165 0-12.994 5.83-12.994 12.994s5.83 12.993 12.994 12.993 12.993-5.829 12.993-12.993-5.828-12.994-12.993-12.994zm3.14 8.794h4.2v1.05h-4.2zm-2.362 6.3c0 3.241-2.887 3.15-2.887 3.15h-5.776v-10.5l5.644.009c1.647 0 2.725.937 2.725 2.836 0 1.901-1.589 2.022-1.589 2.022 2.095.001 1.883 2.483 1.883 2.483zm4.462 1.575c1.575 0 1.575-1.575 1.575-1.575h2.1c0 3.15-3.675 3.15-3.675 3.15-4.2 0-3.937-3.937-3.937-3.937s-.007-3.937 3.937-3.937c3.675 0 3.675 3.15 3.675 4.2-1.05 0-5.25 0-5.25 0 0 2.099 1.575 2.099 1.575 2.099z" fill="#1a1718"/></g><g><path d="m16 0c-8.837 0-16 7.164-16 16s7.163 16 16 16c8.836 0 16-7.164 16-16s-7.163-16-16-16zm0 29.493c-7.452 0-13.494-6.04-13.494-13.493s6.042-13.494 13.494-13.494 13.493 6.041 13.493 13.494-6.041 13.493-13.493 13.493z" fill="#1a1718"/></g><g><path d="m13.365 16.525h-3.15v3.15h3.15c.227 0 1.575-.016 1.575-1.575s-1.575-1.575-1.575-1.575z" fill="#1a1718"/></g></g></g></svg>