<svg id="Capa_3" enable-background="new 0 0 453.54 453.54" height="512" viewBox="0 0 453.54 453.54" width="512" xmlns="http://www.w3.org/2000/svg"><g><path d="m284.978 127.766h-116.416c-22.531 0-40.796 18.266-40.796 40.799v116.415c0 22.527 18.265 40.795 40.796 40.795h116.416c22.532 0 40.798-18.268 40.798-40.795v-116.416c-.001-22.533-18.266-40.798-40.798-40.798zm-58.209 163.158c-35.431 0-64.153-28.723-64.153-64.155 0-35.431 28.723-64.152 64.153-64.152 35.432 0 64.155 28.722 64.155 64.152 0 35.432-28.723 64.155-64.155 64.155zm68.534-120.658c-6.939 0-12.563-5.625-12.563-12.566 0-6.938 5.624-12.563 12.563-12.563 6.938 0 12.563 5.625 12.563 12.563 0 6.941-5.625 12.566-12.563 12.566z"/><path d="m226.769 184.259c-23.478 0-42.512 19.032-42.512 42.51 0 23.481 19.035 42.513 42.512 42.513 23.48 0 42.514-19.031 42.514-42.513 0-23.478-19.034-42.51-42.514-42.51z"/><path d="m295.162-.002h-136.784c-87.47 0-158.38 70.91-158.38 158.38v136.783c0 87.471 70.91 158.381 158.38 158.381h136.783c87.47 0 158.38-70.91 158.38-158.381v-136.783c.001-87.47-70.909-158.38-158.379-158.38zm52.265 297.71c0 27.459-22.261 49.719-49.72 49.719h-141.875c-27.458 0-49.719-22.26-49.719-49.719v-141.877c0-27.458 22.261-49.718 49.719-49.718h141.876c27.459 0 49.72 22.26 49.72 49.718v141.877z"/></g></svg>